<?xml version="1.0" encoding="UTF-8"?>
<svg version="1.1" viewBox="0 0 2400 1200" width="600" height="300" xmlns="http://www.w3.org/2000/svg">
<path transform="translate(2181,667)" d="m0 0h46l2 3v72l-1 2h-2092l-1-1v-46l2-2h2042v-23z" fill="#F9F9F9"/>
<path transform="translate(909,99)" d="m0 0 5 1 18 11 9 7 10 9 9 12 8 14 6 15 5 19 2 16v57l-3 19-6 17-10 16-12 12-9 7-5 2 4 4 11 8 9 9 9 14 6 14 4 16 2 17 1 54-2 28-5 24-5 15-8 16-9 13-11 12-10 8-12 7-15 6-18 5-18 3-10 1h-121l-1-6v-38l6-1 63-1 20-2 22-5 15-6 15-8 10-8 11-11 9-13 7-14 6-18 5-24 1-11v-70l-3-22-5-16-8-16-8-10-11-10-8-5 1-4 6-4 10-9 8-9 9-14 5-14 3-13 1-9v-58l-4-24-7-21-6-11z" fill="#FEFEFE"/>
<path transform="translate(2193,95)" d="m0 0 5 1 13 8 14 10 7 6 11 14 8 13 7 15 5 17 2 13v311l-2 14-5 17-8 16-7 11-11 13-12 11-16 10-14 7-19 6-15 3h-35l-18-4-17-6-17-9-14-11-6-5-7-8-9-9-1-3 2-1 13 5 16 4 8 1h33l16-3 18-6 21-11 13-10 13-13 10-14 8-16 5-16 3-16v-312l-4-20-6-17-6-11z" fill="#FEFEFE"/>
<path transform="translate(1241,95)" d="m0 0 5 1 13 8 14 10 7 6 11 14 8 13 7 15 5 17 2 12v313l-3 17-6 18-9 16-8 11-11 12-11 9-13 8-14 7-19 6-15 3h-34l-15-3-16-5-17-8-13-9-10-9-18-18-1-3 2-1 13 5 16 4 8 1 22 1 18-2 19-5 16-7 16-9 11-9 12-12 10-14 8-16 5-16 3-16v-312l-4-20-6-17-6-11z" fill="#FEFEFE"/>
<path transform="translate(163,87)" d="m0 0h30l21 1 1 1v517l-1 1h-78l-1-5v-37l2-3h25v-473z" fill="#FEFEFE"/>
<path transform="translate(330,87)" d="m0 0h35l15 1 1 1v394l-1 1h-51l-1-1v-394z" fill="#FEFEFE"/>
<path transform="translate(1127,119)" d="m0 0h17l13 4 11 7 8 9 5 12 2 12-18 6-10 7-7 8-4 10-1 4-1 42v160l-1 88h-13l-12-3-10-5-6-5-7-10-4-11-1-7v-288l3-13 6-10 4-5 10-7 11-4z" fill="#FEFEFE"/>
<path transform="translate(1569,318)" d="m0 0 14 7 12 8 13 11 9 11 9 16 5 15 4 20 2 21 1 40-3 34-5 24-7 20-8 15-8 11-9 10-11 9-16 9-15 6-21 5-7 1h-40l-19-4-19-7-16-9-14-11-13-13-7-8-1-4 21 7 18 3h38l13-2 15-4 13-5 16-9 11-9 10-10 9-14 8-16 6-20 4-21 2-18v-52l-3-29-5-21-4-10-2-3z" fill="#FEFEFE"/>
<path transform="translate(2079,119)" d="m0 0h17l13 4 11 7 8 9 5 12 2 12-18 6-10 7-7 8-4 10-1 4-1 34v106l-1 150h-13l-12-3-10-5-5-4-8-11-4-11-1-8v-287l3-13 6-10 4-5 10-7 11-4z" fill="#FEFEFE"/>
<path transform="translate(1760,119)" d="m0 0h19l11 4 9 7 7 9 6 13 2 10-1 2-13 5-8 7-6 13-3 13-1 33-1 251-3 2h-16l-12-3-8-5-8-11-5-14-1-8v-283l3-16 5-13 6-8 8-5z" fill="#FEFEFE"/>
<path transform="translate(1566,822)" d="m0 0h27l3 2 14 64 20 89 13 58 4 17-1 2h-36l-2-6-8-39-1-3h-39l-4 18-6 29-3 2-33-1-1-5 27-121 19-85 4-18zm12 78-5 30-8 40 25 1 3-1-2-13-9-46-3-11z" fill="#FEFEFE"/>
<path transform="translate(744,822)" d="m0 0h55l15 2 11 4 8 6 5 5 6 7 5 11 3 14v44l-3 14-8 16-10 10-14 7-16 3h-21v87l-2 2h-35l-1-6v-225zm35 34v74l5 1 16-1 9-3 6-7 2-7v-41l-3-8-6-5-7-2-8-1z" fill="#FEFEFE"/>
<path transform="translate(1894,454)" d="m0 0h45l6 1v46l-2 14-5 17-7 15-7 12-13 16-5 5h-2v2l-15 11-21 11-17 5-11 2h-34l-26-5-16-6-11-6-12-9-14-14-9-11-1-2 7 1 22 5 9 1h34l15-3 14-5 17-9 11-8 10-9 7-7 10-14 6-10 8-21 3-12 2-12z" fill="#fff"/>
<path transform="translate(1321,822)" d="m0 0h92l4 1v28l-10 29-18 49-8 21-8 23-8 21-6 16-3 9h60l2 5-1 29-1 1h-100l-1-2v-22l2-12 9-25 11-30 13-35 7-20 9-24 6-17 4-11h-56l-1-1v-30z" fill="#FCFCFC"/>
<path transform="translate(1119,822)" d="m0 0h91l6 2-1 29-9 26-21 57-17 47-7 18-6 16-1 2h60l2 2v28l-2 5h-99l-1-3v-26l4-13 9-25 36-99 12-32h-57l-1-1v-32z" fill="#FDFDFD"/>
<path transform="translate(475,527)" d="m0 0h44l7 1v78l-1 1h-223l-1-6v-38l4-1h168v-34z" fill="#FEFEFE"/>
<path transform="translate(765,324)" d="m0 0h17l26 1 12 2 12 5 8 6 6 8 5 12 2 7v4l-4 1h-25l-6-1v111l-2 2-5 1-43 2-4-2v-158z" fill="#FEFEFE"/>
<path transform="translate(970,822)" d="m0 0h30l5 1 1 9v220l-1 2h-36l-1-3v-228z" fill="#fff"/>
<path transform="translate(766,118)" d="m0 0h16l23 1 15 3 10 4 8 6 6 7 6 12 3 12-1 1h-34v87l-1 2-3 1-12 1h-37l-1-3v-133z" fill="#FEFEFE"/>
<path transform="translate(1447,119)" d="m0 0h19l12 3 10 6 7 8 7 14 3 10v3l-15 5-10 6-7 8-5 11-3 10-2 19v14l1 18-5-1-24-11-9-6-5-4-6-9-4-11-2-16v-21l3-21 5-13 7-9 8-7 8-4z" fill="#FEFEFE"/>
<path transform="translate(1873,92)" d="m0 0 14 7 13 9 12 11 12 15 10 18 6 16 4 19 1 9 1 42-2 3h-79l-1-2-1-42 1-1h28l-1-43-3-21-5-16-7-16-4-7z" fill="#FEFEFE"/>
<path transform="translate(1565,95)" d="m0 0 5 1 19 12 13 11 11 12 10 15 9 19 4 16 1 7 1 52-2 2h-77l-2-4-1-27-2-14h30l-1-52-3-17-7-19-7-11z" fill="#FEFEFE"/>
<path transform="translate(1401,312)" d="m0 0 23 10 37 15 20 9 12 8 7 8 5 15-1 2-6-2-26-11-23-10-14-8-13-10-16-16-6-7z" fill="#FEFEFE"/>
<path transform="translate(1414,455)" d="m0 0h39l6 2 1 29-1 2h-13l-16-4-8-6-7-8-6-11v-3z" fill="#F6F6F6"/>
</svg>
